<mxfile host="app.diagrams.net" modified="2023-07-18T06:50:05.883Z" agent="Mozilla/5.0 (Windows NT 10.0; Win64; x64) AppleWebKit/537.36 (KHTML, like Gecko) Chrome/114.0.0.0 Safari/537.36" etag="JQW1xv0-pBnLPJ-MespT" version="21.6.2" type="github">
  <diagram name="Page-1" id="c7558073-3199-34d8-9f00-42111426c3f3">
    <mxGraphModel dx="733" dy="370" grid="1" gridSize="10" guides="1" tooltips="1" connect="1" arrows="1" fold="1" page="1" pageScale="1" pageWidth="1654" pageHeight="2336" background="none" math="0" shadow="0">
      <root>
        <mxCell id="0" />
        <mxCell id="1" parent="0" />
        <mxCell id="13" value="Management" style="whiteSpace=wrap;align=center;verticalAlign=middle;fontStyle=1;strokeWidth=3;fillColor=#FFFFCC;labelBackgroundColor=none;rounded=1;" parent="1" vertex="1">
          <mxGeometry x="601" y="650" width="90" height="60" as="geometry" />
        </mxCell>
        <mxCell id="15" value="Vendors" style="whiteSpace=wrap;align=center;verticalAlign=middle;fontStyle=1;strokeWidth=3;fillColor=#FFFFCC;labelBackgroundColor=none;rounded=1;" parent="1" vertex="1">
          <mxGeometry x="772" y="721" width="90" height="60" as="geometry" />
        </mxCell>
        <mxCell id="LEWASo-noqgJ5dtIMuOe-97" value="Administrator" style="whiteSpace=wrap;align=center;verticalAlign=middle;fontStyle=1;strokeWidth=3;labelBackgroundColor=none;rounded=1;" vertex="1" parent="1">
          <mxGeometry x="843" y="892" width="90" height="60" as="geometry" />
        </mxCell>
        <mxCell id="LEWASo-noqgJ5dtIMuOe-98" value="Pharmacist" style="whiteSpace=wrap;align=center;verticalAlign=middle;fontStyle=1;strokeWidth=3;labelBackgroundColor=none;rounded=1;" vertex="1" parent="1">
          <mxGeometry x="772" y="1063" width="90" height="60" as="geometry" />
        </mxCell>
        <mxCell id="LEWASo-noqgJ5dtIMuOe-99" value="Wholesale Customer" style="whiteSpace=wrap;align=center;verticalAlign=middle;fontStyle=1;strokeWidth=3;fillColor=#FFFFCC;labelBackgroundColor=none;rounded=1;" vertex="1" parent="1">
          <mxGeometry x="601" y="1134" width="90" height="60" as="geometry" />
        </mxCell>
        <mxCell id="LEWASo-noqgJ5dtIMuOe-100" value="Retail&#xa;Customer" style="whiteSpace=wrap;align=center;verticalAlign=middle;fontStyle=1;strokeWidth=3;fillColor=#FFFFCC;labelBackgroundColor=none;rounded=1;" vertex="1" parent="1">
          <mxGeometry x="430" y="1063" width="95" height="63.33" as="geometry" />
        </mxCell>
        <mxCell id="LEWASo-noqgJ5dtIMuOe-101" value="Pharmacy Management System" style="whiteSpace=wrap;align=center;verticalAlign=middle;fontStyle=1;strokeWidth=3;fillColor=#FFFFCC;labelBackgroundColor=none;rounded=1;" vertex="1" parent="1">
          <mxGeometry x="359" y="892" width="90" height="60" as="geometry" />
        </mxCell>
        <mxCell id="LEWASo-noqgJ5dtIMuOe-102" value="Payment Gateway" style="whiteSpace=wrap;align=center;verticalAlign=middle;fontStyle=1;strokeWidth=3;fillColor=#FFFFCC;labelBackgroundColor=none;rounded=1;" vertex="1" parent="1">
          <mxGeometry x="430" y="721" width="90" height="60" as="geometry" />
        </mxCell>
        <mxCell id="LEWASo-noqgJ5dtIMuOe-126" value="&lt;p style=&quot;margin: 4px 0px 0px; text-align: center; text-decoration: underline; font-size: 14px;&quot;&gt;0&lt;/p&gt;&lt;hr style=&quot;font-size: 14px;&quot;&gt;&lt;p style=&quot;margin: 0px 0px 0px 8px; font-size: 14px;&quot;&gt;United Pharma&amp;nbsp;&lt;/p&gt;&lt;p style=&quot;margin: 0px 0px 0px 8px; font-size: 14px;&quot;&gt;Web Application&lt;/p&gt;" style="verticalAlign=middle;align=center;overflow=fill;fontSize=14;fontFamily=Helvetica;html=1;rounded=1;fontStyle=1;strokeWidth=3;fillColor=#0050ef;fontColor=#ffffff;strokeColor=#001DBC;labelBackgroundColor=none;" vertex="1" parent="1">
          <mxGeometry x="578.78" y="867" width="134.44" height="110" as="geometry" />
        </mxCell>
      </root>
    </mxGraphModel>
  </diagram>
</mxfile>
